<svg xmlns="http://www.w3.org/2000/svg" xmlns:xlink="http://www.w3.org/1999/xlink" width="500" zoomAndPan="magnify" viewBox="0 0 375 374.999991" height="500" preserveAspectRatio="xMidYMid meet" version="1.0"><defs><g/><clipPath id="1e49bcd576"><path d="M 62 49.359375 L 314.542969 49.359375 L 314.542969 305.859375 L 62 305.859375 Z M 62 49.359375 " clip-rule="nonzero"/></clipPath></defs><path fill="#d6ba59" d="M 75.894531 112.28125 C 78.101562 108.566406 80.488281 104.972656 83.042969 101.511719 C 86.800781 102.976562 91.1875 104.144531 96.304688 104.882812 C 96.304688 104.882812 86.339844 105.246094 75.894531 112.28125 " fill-opacity="1" fill-rule="nonzero"/><path fill="#d6ba59" d="M 138.40625 296.765625 C 135.363281 295.539062 132.375 294.203125 129.449219 292.753906 C 129.335938 286.035156 127.375 278.449219 122.734375 269.953125 C 122.734375 269.953125 132.394531 281.160156 138.40625 296.765625 " fill-opacity="1" fill-rule="nonzero"/><path fill="#d6ba59" d="M 204.929688 130.683594 C 192.472656 128.527344 197.429688 117.878906 212.257812 118.757812 C 233.769531 120.027344 237.367188 136.792969 237.367188 136.792969 C 226.636719 122.886719 217.390625 132.839844 204.929688 130.683594 " fill-opacity="1" fill-rule="nonzero"/><g clip-path="url(#1e49bcd576)"><path fill="#d6ba59" d="M 256.785156 243.046875 C 256.785156 243.046875 252.09375 224.203125 233.933594 212.59375 C 233.933594 212.59375 261.8125 218.964844 277.917969 202.988281 C 277.917969 202.988281 281.332031 229.023438 256.785156 243.046875 Z M 278.125 194.566406 C 262.851562 210.292969 238.625 202.609375 227.515625 196.539062 C 214.894531 189.640625 207.199219 179.929688 207.199219 179.929688 C 228.875 182.867188 238.492188 171.902344 238.492188 171.902344 C 238.492188 171.902344 194.726562 170.585938 184.109375 150.574219 C 173.496094 130.5625 190.695312 106.0625 190.695312 106.0625 C 232.472656 100.648438 248.332031 138.609375 248.332031 138.609375 C 306.035156 163.40625 284.964844 175.953125 284.964844 175.953125 C 285.007812 161 266.59375 170.429688 266.59375 170.429688 C 266.59375 170.429688 293.398438 178.839844 278.125 194.566406 Z M 244.507812 292.097656 C 286.140625 270.882812 314.65625 227.617188 314.65625 177.6875 C 314.65625 106.8125 257.199219 49.359375 186.324219 49.359375 C 165.113281 49.359375 145.105469 54.507812 127.476562 63.621094 C 128.605469 63.402344 129.761719 63.171875 130.945312 62.921875 C 177.835938 52.902344 194.222656 71.902344 194.222656 71.902344 C 191.476562 65.710938 184.675781 54.917969 184.675781 54.917969 C 225.175781 64.015625 229.742188 108.9375 229.742188 108.9375 C 200.816406 73.007812 150.144531 82.847656 113.679688 79.515625 C 110.574219 79.234375 107.757812 78.804688 105.199219 78.25 C 102.109375 80.777344 99.140625 83.441406 96.300781 86.238281 C 113.523438 89.769531 134.832031 91.644531 155.460938 89.550781 C 198.828125 85.152344 213.988281 103.023438 213.988281 103.023438 C 170.953125 88.878906 158.71875 114.539062 105.589844 115.003906 C 89.320312 115.144531 77.71875 118.929688 70.503906 122.363281 C 68.191406 127.199219 66.171875 132.199219 64.46875 137.347656 C 73.554688 127.941406 85.625 122.601562 97.785156 122.917969 C 140.863281 124.039062 159.433594 111.894531 159.433594 111.894531 C 143.34375 134.808594 110.21875 142.605469 86.238281 157.195312 C 60.347656 172.945312 60.941406 200.382812 63.679688 215.5625 C 70.277344 236.949219 82.316406 255.949219 98.179688 270.949219 C 95.941406 266.816406 93.226562 262.503906 89.980469 257.964844 C 67.359375 226.296875 70.089844 185.347656 93.613281 167.867188 C 106.296875 158.4375 129.453125 154.925781 155.75 131.542969 C 155.75 131.542969 150.226562 151.296875 114.476562 177.363281 C 86.378906 197.847656 134.09375 226.539062 153.53125 273.492188 C 158.292969 285 160.726562 294.972656 161.464844 303.609375 C 169.507812 305.183594 177.820312 306.015625 186.324219 306.015625 C 188.925781 306.015625 191.507812 305.933594 194.066406 305.78125 C 184.019531 266.441406 138.648438 234.976562 130.070312 202.175781 C 120.742188 166.511719 161.40625 146.476562 161.40625 146.476562 C 133.628906 176.234375 154.300781 210.375 154.300781 210.375 C 152.886719 164.9375 196.320312 173.417969 196.320312 173.417969 C 155.695312 180.109375 176.484375 204.097656 210.871094 258.917969 C 220.476562 274.230469 223.644531 288.253906 222.925781 300.71875 C 227.136719 299.46875 231.257812 298.003906 235.277344 296.347656 C 232.476562 272.378906 222.710938 253.433594 212.023438 240.453125 C 207.546875 235.011719 203.566406 229.8125 199.289062 225.15625 C 173.847656 197.445312 193.148438 184.480469 211.882812 194.039062 C 211.882812 194.039062 182.6875 191.808594 221.910156 219.542969 C 252.878906 241.4375 250.535156 272.21875 244.507812 292.097656 " fill-opacity="1" fill-rule="nonzero"/></g><g fill="#d6ba59" fill-opacity="1"><g transform="translate(99.940838, 335.264743)"><g><path d="M 12.015625 -13.601562 L 12.015625 -10.996094 L 15.644531 -10.996094 L 15.644531 -4.835938 C 15.644531 -2.871094 14.660156 -1.777344 12.921875 -1.777344 C 11.902344 -1.777344 10.917969 -2.230469 10.390625 -2.945312 C 9.257812 -4.457031 8.953125 -6.308594 8.953125 -12.015625 C 8.953125 -13.867188 9.070312 -16.398438 9.183594 -18.023438 C 9.332031 -19.648438 9.863281 -21.046875 10.691406 -22.105469 C 11.335938 -22.898438 12.507812 -23.390625 13.679688 -23.390625 C 15.265625 -23.390625 16.511719 -22.59375 17.269531 -21.085938 C 17.871094 -19.988281 17.949219 -19.574219 17.949219 -16.925781 L 21.386719 -18.476562 C 20.820312 -21.046875 20.328125 -22.179688 19.347656 -23.238281 C 17.949219 -24.785156 15.679688 -25.617188 12.960938 -25.617188 C 9.558594 -25.617188 6.613281 -24.445312 4.570312 -22.253906 C 2.378906 -19.875 1.058594 -16.171875 1.058594 -12.316406 C 1.058594 -8.804688 2.191406 -5.289062 4.117188 -2.945312 C 5.96875 -0.640625 8.765625 0.414062 12.808594 0.414062 C 15.605469 0.414062 16.738281 0.0390625 19.269531 -1.738281 L 20.0625 0 L 22.40625 0 L 22.40625 -13.601562 Z M 12.015625 -13.601562 "/></g></g></g><g fill="#d6ba59" fill-opacity="1"><g transform="translate(123.743014, 335.264743)"><g><path d="M 25.542969 -25.203125 L 17.949219 -25.203125 L 13.714844 -9.976562 L 9.445312 -25.203125 L 2.039062 -25.203125 L 2.039062 0 L 4.570312 0 L 4.570312 -17.230469 L 9.558594 0 L 13.566406 0 L 18.402344 -17.53125 L 18.402344 0 L 25.542969 0 Z M 25.542969 -25.203125 "/></g></g></g><g fill="#d6ba59" fill-opacity="1"><g transform="translate(151.474438, 335.264743)"><g/></g></g><g fill="#d6ba59" fill-opacity="1"><g transform="translate(162.053184, 335.264743)"><g><path d="M 18.476562 -25.203125 L 2.152344 -25.203125 L 2.152344 0 L 20.027344 0 L 20.027344 -2.53125 L 9.484375 -2.53125 L 9.484375 -12.582031 L 17.042969 -12.582031 L 17.042969 -15.039062 L 9.484375 -15.039062 L 9.484375 -22.632812 L 18.476562 -22.632812 Z M 18.476562 -25.203125 "/></g></g></g><g fill="#d6ba59" fill-opacity="1"><g transform="translate(182.190585, 335.264743)"><g><path d="M 19.421875 0 L 19.421875 -14.320312 C 19.421875 -17.382812 17.757812 -19.082031 14.699219 -19.082031 C 12.167969 -19.082031 10.464844 -18.136719 8.652344 -15.605469 L 8.652344 -19.082031 C 5.59375 -18.664062 5.0625 -18.628906 1.890625 -18.628906 L 1.890625 0 L 8.652344 0 L 8.652344 -10.203125 C 8.652344 -12.054688 9.371094 -14.207031 10.316406 -15.191406 C 10.617188 -15.53125 11.109375 -15.71875 11.601562 -15.71875 C 12.507812 -15.71875 12.769531 -15.226562 12.769531 -13.640625 L 12.769531 0 Z M 19.421875 0 "/></g></g></g><g fill="#d6ba59" fill-opacity="1"><g transform="translate(203.536984, 335.264743)"><g><path d="M 15.152344 -6.761719 C 15.191406 -6.273438 15.191406 -5.894531 15.191406 -5.480469 C 15.191406 -2.945312 13.792969 -1.324219 11.636719 -1.324219 C 10.578125 -1.324219 9.558594 -1.8125 9.105469 -2.492188 C 8.273438 -3.742188 8.085938 -4.875 8.011719 -8.652344 L 17.835938 -8.652344 C 17.835938 -13.113281 17.191406 -15.226562 15.378906 -17.078125 C 14.207031 -18.289062 12.054688 -19.082031 9.9375 -19.082031 C 4.648438 -19.082031 0.980469 -14.925781 0.980469 -8.878906 C 0.980469 -6.121094 1.664062 -3.96875 3.023438 -2.378906 C 4.570312 -0.605469 7.21875 0.414062 10.277344 0.414062 C 13.375 0.414062 15.757812 -0.566406 16.890625 -2.265625 C 17.496094 -3.210938 17.722656 -4.082031 17.871094 -5.96875 Z M 8.011719 -10.769531 C 8.160156 -14.320312 8.238281 -14.960938 8.5 -15.71875 C 8.839844 -16.664062 9.410156 -17.191406 10.050781 -17.191406 C 11.449219 -17.191406 11.902344 -15.605469 12.015625 -10.769531 Z M 8.011719 -10.769531 "/></g></g></g><g fill="#d6ba59" fill-opacity="1"><g transform="translate(222.389819, 335.264743)"><g><path d="M 15.265625 -11.828125 C 15.757812 -13.679688 15.90625 -14.660156 15.90625 -15.644531 C 15.90625 -17.796875 14.773438 -19.042969 12.882812 -19.042969 C 11.035156 -19.042969 9.824219 -18.136719 8.652344 -15.984375 L 8.652344 -19.082031 C 5.59375 -18.589844 5.253906 -18.589844 1.890625 -18.589844 L 1.890625 0 L 8.652344 0 L 8.652344 -11.109375 C 8.652344 -13.640625 9.597656 -15.984375 10.617188 -15.984375 C 11.070312 -15.984375 11.335938 -15.644531 11.335938 -15.039062 C 11.335938 -14.394531 11.222656 -13.828125 10.65625 -11.828125 Z M 15.265625 -11.828125 "/></g></g></g><g fill="#d6ba59" fill-opacity="1"><g transform="translate(238.409064, 335.264743)"><g><path d="M 13.980469 -18.402344 C 13.980469 -19.269531 14.246094 -19.648438 14.8125 -19.648438 C 15.039062 -19.648438 15.191406 -19.609375 15.644531 -19.382812 C 16.132812 -19.15625 16.664062 -19.003906 17.003906 -19.003906 C 18.0625 -19.003906 18.929688 -19.914062 18.929688 -20.96875 C 18.929688 -22.40625 17.570312 -23.503906 15.832031 -23.503906 C 13.679688 -23.503906 12.054688 -21.878906 12.054688 -19.761719 C 12.054688 -19.609375 12.089844 -19.234375 12.128906 -18.855469 C 11.035156 -19.003906 9.898438 -19.082031 9.332031 -19.082031 C 4.683594 -19.082031 1.210938 -16.359375 1.210938 -12.695312 C 1.210938 -11.035156 1.890625 -9.523438 3.0625 -8.5 C 3.589844 -8.085938 4.003906 -7.820312 4.988281 -7.445312 C 2.078125 -6.046875 0.71875 -4.496094 0.71875 -2.644531 C 0.71875 -1.171875 1.851562 -0.1875 4.308594 0.453125 C 2.039062 0.980469 0.945312 1.890625 0.945312 3.210938 C 0.945312 4.082031 1.664062 5.027344 2.71875 5.59375 C 4.230469 6.347656 5.96875 6.648438 9.070312 6.648438 C 13.339844 6.648438 15.757812 6.160156 17.835938 4.796875 C 19.347656 3.855469 20.328125 2.117188 20.328125 0.453125 C 20.328125 -2.570312 17.644531 -4.570312 13.601562 -4.570312 C 12.582031 -4.570312 10.917969 -4.496094 9.144531 -4.382812 C 8.613281 -4.34375 7.859375 -4.308594 7.59375 -4.308594 C 6.5 -4.308594 5.96875 -4.648438 5.96875 -5.289062 C 5.96875 -5.820312 6.347656 -6.273438 7.140625 -6.800781 C 8.5 -6.574219 9.824219 -6.460938 10.503906 -6.460938 C 15.078125 -6.460938 18.703125 -9.144531 18.703125 -12.507812 C 18.703125 -14.960938 16.925781 -17.15625 13.980469 -18.402344 Z M 9.898438 -17.230469 C 11.335938 -17.230469 11.75 -16.058594 11.75 -12.128906 C 11.75 -9.296875 11.296875 -8.351562 9.976562 -8.351562 C 9.484375 -8.351562 8.992188 -8.539062 8.726562 -8.839844 C 8.199219 -9.410156 8.046875 -10.238281 8.046875 -12.808594 C 8.046875 -15.339844 8.238281 -16.246094 8.839844 -16.851562 C 9.105469 -17.078125 9.484375 -17.230469 9.898438 -17.230469 Z M 9.9375 1.246094 C 13.300781 1.246094 14.660156 1.699219 14.660156 2.796875 C 14.660156 4.15625 12.921875 4.875 9.710938 4.875 C 6.648438 4.875 5.101562 4.269531 5.101562 3.023438 C 5.101562 1.851562 6.726562 1.246094 9.9375 1.246094 Z M 9.9375 1.246094 "/></g></g></g><g fill="#d6ba59" fill-opacity="1"><g transform="translate(258.659806, 335.264743)"><g><path d="M 17.496094 -18.589844 L 15 -18.589844 L 10.730469 -7.671875 L 6.988281 -18.589844 L -0.414062 -18.589844 L 7.066406 0.90625 L 6.574219 2.230469 C 6.046875 3.664062 5.140625 4.535156 4.195312 4.535156 C 3.363281 4.535156 2.910156 3.96875 2.644531 2.570312 L 0.339844 4.230469 C 0.679688 5.140625 0.980469 5.59375 1.398438 5.894531 C 2.078125 6.386719 3.136719 6.6875 4.15625 6.6875 C 6.347656 6.6875 7.707031 5.480469 8.953125 2.378906 Z M 17.496094 -18.589844 "/></g></g></g></svg>