<svg xmlns="http://www.w3.org/2000/svg" xmlns:xlink="http://www.w3.org/1999/xlink" width="500" zoomAndPan="magnify" viewBox="0 0 375 374.999991" height="500" preserveAspectRatio="xMidYMid meet" version="1.0"><defs><clipPath id="a196fde6fc"><path d="M 36 32.101562 L 341.710938 32.101562 L 341.710938 342.601562 L 36 342.601562 Z M 36 32.101562 " clip-rule="nonzero"/></clipPath></defs><path fill="#d6ba59" d="M 52.351562 108.292969 C 55.023438 103.796875 57.914062 99.445312 61.007812 95.253906 C 65.558594 97.027344 70.867188 98.441406 77.070312 99.335938 C 77.070312 99.335938 65 99.777344 52.351562 108.292969 " fill-opacity="1" fill-rule="nonzero"/><path fill="#d6ba59" d="M 128.050781 331.699219 C 124.363281 330.210938 120.746094 328.589844 117.207031 326.839844 C 117.066406 318.699219 114.695312 309.515625 109.074219 299.226562 C 109.074219 299.226562 120.769531 312.796875 128.050781 331.699219 " fill-opacity="1" fill-rule="nonzero"/><path fill="#d6ba59" d="M 208.609375 130.578125 C 193.523438 127.964844 199.523438 115.074219 217.480469 116.136719 C 243.53125 117.675781 247.886719 137.976562 247.886719 137.976562 C 234.890625 121.136719 223.699219 133.191406 208.609375 130.578125 " fill-opacity="1" fill-rule="nonzero"/><g clip-path="url(#a196fde6fc)"><path fill="#d6ba59" d="M 271.398438 266.644531 C 271.398438 266.644531 265.722656 243.828125 243.730469 229.769531 C 243.730469 229.769531 277.488281 237.484375 296.992188 218.136719 C 296.992188 218.136719 301.125 249.664062 271.398438 266.644531 Z M 297.242188 207.9375 C 278.746094 226.980469 249.410156 217.679688 235.957031 210.328125 C 220.671875 201.976562 211.355469 190.214844 211.355469 190.214844 C 237.601562 193.773438 249.25 180.492188 249.25 180.492188 C 249.25 180.492188 196.25 178.898438 183.398438 154.667969 C 170.542969 130.433594 191.371094 100.761719 191.371094 100.761719 C 241.957031 94.210938 261.164062 140.175781 261.164062 140.175781 C 331.042969 170.203125 305.523438 185.398438 305.523438 185.398438 C 305.578125 167.289062 283.277344 178.710938 283.277344 178.710938 C 283.277344 178.710938 315.738281 188.894531 297.242188 207.9375 Z M 256.53125 326.046875 C 306.949219 300.355469 341.476562 247.957031 341.476562 187.496094 C 341.476562 101.671875 271.902344 32.097656 186.078125 32.097656 C 160.390625 32.097656 136.160156 38.332031 114.816406 49.371094 C 116.183594 49.105469 117.582031 48.824219 119.015625 48.523438 C 175.800781 36.394531 195.640625 59.394531 195.640625 59.394531 C 192.3125 51.898438 184.082031 38.832031 184.082031 38.832031 C 233.125 49.847656 238.652344 104.246094 238.652344 104.246094 C 203.625 60.738281 142.261719 72.652344 98.109375 68.617188 C 94.347656 68.277344 90.9375 67.753906 87.839844 67.085938 C 84.097656 70.144531 80.5 73.371094 77.0625 76.757812 C 97.917969 81.035156 123.722656 83.308594 148.703125 80.769531 C 201.21875 75.445312 219.574219 97.082031 219.574219 97.082031 C 167.460938 79.957031 152.644531 111.027344 88.3125 111.589844 C 68.609375 111.765625 54.558594 116.347656 45.824219 120.503906 C 43.023438 126.359375 40.578125 132.417969 38.515625 138.648438 C 49.519531 127.261719 64.136719 120.789062 78.859375 121.175781 C 131.027344 122.535156 153.511719 107.828125 153.511719 107.828125 C 134.027344 135.574219 93.917969 145.015625 64.875 162.683594 C 33.527344 181.757812 34.246094 214.980469 37.5625 233.367188 C 45.550781 259.265625 60.128906 282.269531 79.335938 300.433594 C 76.628906 295.429688 73.339844 290.207031 69.410156 284.710938 C 42.015625 246.363281 45.324219 196.777344 73.808594 175.605469 C 89.167969 164.191406 117.207031 159.933594 149.054688 131.617188 C 149.054688 131.617188 142.363281 155.542969 99.074219 187.105469 C 65.046875 211.914062 122.828125 246.652344 146.363281 303.515625 C 152.132812 317.449219 155.078125 329.523438 155.976562 339.980469 C 165.714844 341.890625 175.78125 342.894531 186.078125 342.894531 C 189.226562 342.894531 192.351562 342.800781 195.453125 342.617188 C 183.285156 294.976562 128.34375 256.871094 117.957031 217.152344 C 106.660156 173.96875 155.902344 149.703125 155.902344 149.703125 C 122.265625 185.742188 147.296875 227.078125 147.296875 227.078125 C 145.585938 172.058594 198.183594 182.332031 198.183594 182.332031 C 148.984375 190.433594 174.160156 219.480469 215.800781 285.863281 C 227.433594 304.40625 231.269531 321.390625 230.402344 336.484375 C 235.5 334.96875 240.492188 333.195312 245.355469 331.1875 C 241.964844 302.164062 230.140625 279.222656 217.195312 263.503906 C 211.777344 256.917969 206.953125 250.621094 201.777344 244.980469 C 170.96875 211.425781 194.34375 195.726562 217.023438 207.296875 C 217.023438 207.296875 181.675781 204.601562 229.171875 238.183594 C 266.671875 264.695312 263.832031 301.972656 256.53125 326.046875 " fill-opacity="1" fill-rule="nonzero"/></g></svg>