<svg xmlns="http://www.w3.org/2000/svg" xmlns:xlink="http://www.w3.org/1999/xlink" width="500" zoomAndPan="magnify" viewBox="0 0 375 374.999991" height="500" preserveAspectRatio="xMidYMid meet" version="1.0"><defs><g/><clipPath id="bf5e469e07"><path d="M 108.675781 84.160156 L 266.105469 84.160156 L 266.105469 267.910156 L 108.675781 267.910156 Z M 108.675781 84.160156 " clip-rule="nonzero"/></clipPath></defs><g clip-path="url(#bf5e469e07)"><path fill="#c08e32" d="M 183.730469 267.910156 C 191.84375 265.941406 196.71875 262.730469 201.085938 256.203125 C 205.304688 249.898438 213.859375 244.722656 218.683594 237.996094 C 220.875 235.78125 223.09375 233.492188 225.316406 231.183594 C 231.332031 228.054688 235.933594 223.609375 239.289062 218.8125 C 242.785156 213.808594 245.125 207.542969 246.980469 201.707031 C 251.433594 199.753906 253.699219 197.464844 256.738281 193.523438 C 260.789062 188.265625 263.507812 181.910156 264.261719 177.953125 C 268.089844 166.789062 266.570312 155.953125 260.09375 146.257812 C 261.898438 132.28125 242.570312 93.679688 225.34375 89.375 C 211.828125 79.066406 190.46875 86.867188 187.503906 88.960938 C 184.539062 86.867188 163.179688 79.066406 149.660156 89.375 C 132.4375 93.679688 113.109375 132.28125 114.917969 146.257812 C 108.4375 155.953125 106.921875 166.789062 110.746094 177.953125 C 111.5 181.910156 114.21875 188.265625 118.273438 193.523438 C 121.3125 197.464844 123.578125 199.753906 128.027344 201.707031 C 129.882812 207.542969 132.222656 213.808594 135.722656 218.8125 C 139.074219 223.609375 143.675781 228.054688 149.691406 231.183594 C 151.914062 233.492188 154.132812 235.78125 156.324219 237.996094 C 159.886719 242.960938 169.601562 251.714844 176.921875 256.316406 C 181.425781 259.152344 185.59375 261.949219 183.730469 267.910156 " fill-opacity="1" fill-rule="evenodd"/></g><path fill="#ffffff" d="M 166.84375 118.980469 C 163.746094 122.53125 159.5 125.65625 157.359375 129.308594 C 155.480469 132.511719 157.195312 133.78125 157.246094 137.882812 C 155.472656 140.882812 152.496094 145.101562 154.644531 149.90625 C 157.195312 155.347656 160.328125 158.507812 162.289062 161.59375 C 163.714844 163.960938 165.839844 160.527344 169.0625 159.980469 C 167.355469 163.453125 165.628906 169.101562 165.136719 172.042969 C 168.640625 171.179688 171.792969 170.992188 173.429688 173.011719 C 171.296875 172.742188 168.285156 173.589844 165.117188 174.546875 C 165.332031 175.570312 165.796875 176.554688 166.285156 177.601562 C 171.566406 175.519531 177.375 173.160156 180.035156 176.058594 C 176.828125 175.855469 171.832031 178.25 167.214844 179.773438 C 167.285156 179.976562 167.351562 180.183594 167.417969 180.394531 C 167.671875 181.234375 167.863281 182.09375 168.144531 182.925781 C 172.054688 180.601562 175.925781 178.832031 178.4375 180.71875 C 175.929688 181.019531 172.625 183.105469 169.253906 185.117188 C 170.015625 186.132812 171.183594 187.035156 173.117188 187.738281 C 176.335938 188.226562 183.582031 184.027344 185.800781 181.007812 C 186.511719 180.039062 186.296875 173.589844 185.9375 172.171875 C 184.886719 172.121094 183.640625 171.566406 183.351562 170.84375 C 183.105469 170.230469 183.492188 169.542969 181.1875 168.445312 C 174.125 165.992188 171.105469 163.917969 177.265625 159.074219 C 177.535156 160.1875 176.515625 162.613281 177.96875 163.097656 C 178.53125 162.589844 181.113281 161.28125 182.015625 161.664062 C 183.707031 162.371094 185.601562 162.746094 187.503906 162.78125 C 189.40625 162.746094 191.300781 162.371094 192.992188 161.664062 C 193.894531 161.28125 196.476562 162.589844 197.042969 163.097656 C 198.492188 162.613281 197.472656 160.1875 197.742188 159.074219 C 203.902344 163.917969 200.882812 165.992188 193.820312 168.445312 C 191.515625 169.542969 191.902344 170.230469 191.65625 170.84375 C 191.367188 171.566406 190.121094 172.121094 189.070312 172.171875 C 188.710938 173.589844 188.5 180.039062 189.207031 181.007812 C 191.425781 184.027344 198.671875 188.226562 201.890625 187.738281 C 203.824219 187.035156 204.992188 186.132812 205.753906 185.117188 C 202.382812 183.105469 199.082031 181.019531 196.570312 180.71875 C 199.082031 178.832031 202.953125 180.601562 206.863281 182.925781 C 207.144531 182.09375 207.339844 181.234375 207.589844 180.394531 C 207.65625 180.183594 207.722656 179.976562 207.792969 179.773438 C 203.175781 178.25 198.179688 175.855469 194.972656 176.058594 C 197.636719 173.160156 203.441406 175.519531 208.722656 177.601562 C 209.210938 176.554688 209.675781 175.570312 209.890625 174.546875 C 206.722656 173.589844 203.714844 172.742188 201.578125 173.011719 C 203.214844 170.992188 206.367188 171.179688 209.875 172.042969 C 209.378906 169.101562 207.652344 163.453125 205.945312 159.980469 C 209.171875 160.527344 211.292969 163.960938 212.71875 161.59375 C 214.679688 158.507812 217.816406 155.347656 220.363281 149.90625 C 222.511719 145.101562 219.539062 140.882812 217.761719 137.882812 C 217.808594 133.78125 219.523438 132.511719 217.648438 129.308594 C 215.511719 125.65625 211.261719 122.53125 208.164062 118.980469 C 205.089844 115.453125 199.660156 115.539062 195.082031 116.09375 C 192.550781 116.394531 190.46875 118.695312 189.480469 121.984375 C 187.636719 128.117188 189.011719 135.234375 187.503906 138.652344 C 186 135.234375 187.371094 128.117188 185.527344 121.984375 C 184.535156 118.695312 182.457031 116.394531 179.925781 116.09375 C 175.347656 115.539062 169.917969 115.453125 166.84375 118.980469 Z M 172.765625 141.835938 C 168.515625 143.820312 165.875 139.90625 164.953125 137.390625 C 163.839844 137.132812 162.78125 136.292969 163.007812 134.59375 C 164.550781 134.933594 166.980469 133.996094 169.277344 134.347656 C 172.46875 134.835938 175.691406 136.898438 176.417969 140.054688 C 177.171875 143.347656 175.996094 148.371094 175.296875 145.140625 C 175.128906 144.359375 174.992188 142.550781 174.703125 142.085938 C 174.097656 141.105469 173.15625 141.652344 172.765625 141.835938 Z M 202.242188 141.835938 C 206.492188 143.820312 209.132812 139.90625 210.054688 137.390625 C 211.167969 137.132812 212.226562 136.292969 212 134.59375 C 210.457031 134.933594 208.03125 133.996094 205.730469 134.347656 C 202.539062 134.835938 199.316406 136.898438 198.59375 140.054688 C 197.835938 143.347656 199.015625 148.371094 199.710938 145.140625 C 199.878906 144.359375 200.019531 142.550781 200.304688 142.085938 C 200.910156 141.105469 201.851562 141.652344 202.242188 141.835938 " fill-opacity="1" fill-rule="evenodd"/><path fill="#ffffff" d="M 184.777344 187.992188 C 180.945312 189.984375 176.457031 191.265625 173.867188 191.507812 C 174.84375 202.601562 200.164062 202.601562 201.140625 191.507812 C 198.539062 191.261719 193.488281 189.855469 189.648438 187.859375 C 189.222656 187.636719 186.558594 187.0625 184.777344 187.992188 " fill-opacity="1" fill-rule="evenodd"/><path fill="#ffffff" d="M 168.628906 107.972656 C 167.414062 110.082031 162.535156 110.746094 159.175781 106.578125 C 160.121094 106.5 162.4375 106.695312 163.46875 106.957031 C 163.109375 103.613281 155.667969 100.222656 150.605469 102.882812 C 152.503906 103.128906 154.855469 104.980469 155.589844 105.875 C 152.707031 105.132812 150.601562 106.222656 148.488281 106.113281 C 149.097656 108.660156 155.28125 107.074219 157.65625 108.898438 C 154.964844 108.320312 151.941406 110.726562 148.601562 111.222656 C 151.910156 112.3125 158.691406 110.132812 160.128906 113.140625 C 156.839844 111.011719 153.40625 116.101562 149.339844 115.460938 C 154.621094 118.878906 156.238281 113.65625 160.957031 115.414062 C 156.914062 117.691406 153.386719 121.855469 151.878906 124.007812 C 148.300781 122.664062 148.828125 120.074219 147.640625 116.871094 C 146.226562 113.058594 144.488281 112.125 145.941406 107.09375 C 146.867188 103.898438 149.09375 99.761719 153.242188 98.769531 C 160.1875 97.109375 167.367188 104.511719 168.628906 107.972656 " fill-opacity="1" fill-rule="evenodd"/><path fill="#ffffff" d="M 206.378906 107.972656 C 207.597656 110.082031 212.472656 110.746094 215.832031 106.578125 C 214.890625 106.5 212.570312 106.695312 211.542969 106.957031 C 211.898438 103.613281 219.339844 100.222656 224.402344 102.882812 C 222.503906 103.128906 220.15625 104.980469 219.417969 105.875 C 222.304688 105.132812 224.402344 106.222656 226.523438 106.113281 C 225.910156 108.660156 219.722656 107.074219 217.351562 108.898438 C 220.042969 108.320312 223.066406 110.726562 226.40625 111.222656 C 223.097656 112.3125 216.316406 110.132812 214.878906 113.140625 C 218.167969 111.011719 221.601562 116.101562 225.671875 115.460938 C 220.390625 118.878906 218.769531 113.65625 214.050781 115.414062 C 218.09375 117.691406 221.625 121.855469 223.128906 124.007812 C 226.707031 122.664062 226.179688 120.074219 227.367188 116.871094 C 228.78125 113.058594 230.519531 112.125 229.066406 107.09375 C 228.140625 103.898438 225.914062 99.761719 221.765625 98.769531 C 214.820312 97.109375 207.644531 104.511719 206.378906 107.972656 " fill-opacity="1" fill-rule="evenodd"/><path fill="#ffffff" d="M 187.757812 263.046875 C 198.179688 252.273438 189.453125 218.460938 192.023438 212.976562 C 189.582031 216.644531 188.332031 223.648438 187.074219 232.515625 C 187.011719 232.960938 185.96875 235.28125 185.121094 235.242188 C 182.035156 235.089844 185.222656 214.34375 186.425781 212.523438 C 176.527344 217.6875 177.3125 239.777344 182.300781 246.917969 C 182.335938 245.472656 182.167969 243.960938 182.15625 242.625 C 182.117188 238.167969 184.652344 238.617188 185.621094 242.59375 C 188.402344 248.683594 188.632812 259.535156 187.757812 263.046875 " fill-opacity="1" fill-rule="evenodd"/><path fill="#ffffff" d="M 150.417969 139.09375 C 148.644531 142.074219 137.246094 155.703125 134.359375 156.6875 C 135.15625 153.113281 150.121094 135.320312 150.054688 131.5625 C 139.863281 142.339844 120.699219 163.398438 123.707031 179.441406 C 124.105469 165.523438 145.828125 153.90625 150.417969 139.09375 " fill-opacity="1" fill-rule="evenodd"/><path fill="#ffffff" d="M 172.269531 199.839844 C 164.253906 201.933594 163.339844 214.039062 165.210938 226.710938 C 165.734375 212.566406 170.777344 203.59375 172.269531 199.839844 " fill-opacity="1" fill-rule="evenodd"/><path fill="#ffffff" d="M 173.699219 220.71875 C 175.699219 214.726562 171.746094 216.738281 170.652344 220.972656 C 169.097656 227.019531 169.488281 233.847656 170.324219 244.957031 C 165.890625 226.882812 167.574219 205.511719 178.554688 201.226562 C 175.125 206.878906 175.847656 210.761719 177.375 210.132812 C 178.691406 209.59375 179.742188 207.460938 181.621094 206.429688 C 179.75 215.125 173.945312 226 174.269531 238.339844 C 174.433594 244.542969 177.023438 249.738281 178.828125 253.171875 C 171.441406 247.929688 171.332031 228.796875 173.699219 220.71875 " fill-opacity="1" fill-rule="evenodd"/><path fill="#ffffff" d="M 142.964844 196.558594 C 143.34375 189.816406 146.125 178.167969 154.320312 175.164062 C 146.339844 184.097656 146.019531 202.832031 150.246094 194.15625 C 152.601562 189.324219 159.257812 179.191406 163.265625 179.890625 C 156.898438 186.921875 153.011719 206.195312 156.199219 214.355469 C 156.433594 204.835938 159.933594 195.949219 169.816406 191.910156 C 166.597656 197.933594 164.34375 201.222656 163.335938 207.394531 C 161.753906 217.089844 161.5 231.125 166.132812 242.339844 C 161.550781 237.976562 160.804688 232.34375 159.527344 226.191406 C 157.589844 216.851562 154.492188 217.71875 154.871094 223.027344 C 155.117188 226.496094 156.5625 230.902344 157.917969 234.214844 C 150.558594 226.71875 147.878906 212.855469 148.417969 202.695312 C 145.753906 209.886719 146.730469 218.703125 150.25 227.164062 C 143.378906 223.238281 142.933594 203.519531 142.964844 196.558594 " fill-opacity="1" fill-rule="evenodd"/><path fill="#ffffff" d="M 132.585938 167.292969 C 140.492188 158.148438 148.566406 155.734375 151.3125 153.640625 C 149.875 157.566406 146.414062 160.476562 144.515625 163.0625 C 143.832031 163.996094 140.507812 169.308594 142.074219 169.945312 C 144.113281 170.425781 152.035156 162.175781 153.308594 159.71875 C 151.242188 170.058594 147.789062 173.632812 144.890625 178.726562 C 141.269531 185.089844 138.964844 197.515625 141.742188 218.042969 C 137.042969 208.726562 134.199219 188.84375 138.199219 179.144531 C 139.679688 175.550781 135.433594 176.296875 134.375 179.390625 C 131.679688 187.273438 131.929688 197.582031 133.792969 205.53125 C 127.738281 196.058594 129.34375 182.253906 133.519531 172.460938 C 128.285156 175.847656 126.25 184.695312 126.300781 191.339844 C 126.3125 193.113281 126.484375 194.894531 126.789062 196.671875 C 118.53125 190.855469 127.53125 173.144531 132.585938 167.292969 " fill-opacity="1" fill-rule="evenodd"/><path fill="#ffffff" d="M 124.667969 149.71875 C 128.875 143.363281 119.804688 148.597656 118.308594 150.9375 C 115.734375 142.710938 131.703125 133.863281 136.402344 131.6875 C 135.949219 132.402344 130.636719 136.296875 129.121094 139.5625 C 126.03125 146.21875 130.195312 143.933594 134.519531 139.5 C 138.761719 135.148438 143.132812 128.726562 144.046875 126.996094 C 146.574219 134.585938 133.949219 143.171875 127.214844 152.324219 C 120.023438 162.109375 116.011719 175.242188 118.578125 187.21875 C 109.84375 172.449219 116.058594 162.730469 124.667969 149.71875 " fill-opacity="1" fill-rule="evenodd"/><path fill="#ffffff" d="M 224.59375 139.09375 C 226.363281 142.074219 237.757812 155.703125 240.648438 156.6875 C 239.851562 153.113281 225.242188 135.765625 225.308594 132.007812 C 235.5 142.785156 254.308594 163.398438 251.304688 179.441406 C 250.902344 165.523438 229.179688 153.90625 224.59375 139.09375 " fill-opacity="1" fill-rule="evenodd"/><path fill="#ffffff" d="M 202.738281 199.839844 C 210.753906 201.933594 211.667969 214.039062 209.800781 226.710938 C 209.273438 212.566406 204.230469 203.59375 202.738281 199.839844 " fill-opacity="1" fill-rule="evenodd"/><path fill="#ffffff" d="M 201.308594 220.71875 C 199.308594 214.726562 203.265625 216.738281 204.355469 220.972656 C 205.910156 227.019531 205.523438 233.847656 204.683594 244.957031 C 209.117188 226.882812 207.433594 205.511719 196.453125 201.226562 C 199.886719 206.878906 199.160156 210.761719 197.632812 210.132812 C 196.320312 209.59375 192.773438 207.460938 190.894531 206.429688 C 192.765625 215.125 199.28125 225.820312 198.957031 238.160156 C 198.792969 244.363281 196.738281 249.738281 194.933594 253.171875 C 202.324219 247.929688 203.679688 228.796875 201.308594 220.71875 " fill-opacity="1" fill-rule="evenodd"/><path fill="#ffffff" d="M 232.046875 196.558594 C 231.664062 189.816406 228.882812 178.167969 220.6875 175.164062 C 228.667969 184.097656 228.988281 202.832031 224.761719 194.15625 C 222.410156 189.324219 215.75 179.191406 211.742188 179.890625 C 218.109375 186.921875 221.996094 206.195312 218.808594 214.355469 C 218.574219 204.835938 215.074219 195.949219 205.191406 191.910156 C 208.414062 197.933594 210.664062 201.222656 211.671875 207.394531 C 213.253906 217.089844 213.507812 231.125 208.875 242.339844 C 213.460938 237.976562 214.203125 232.34375 215.480469 226.191406 C 217.417969 216.851562 220.515625 217.71875 220.136719 223.027344 C 219.890625 226.496094 218.445312 230.902344 217.089844 234.214844 C 224.449219 226.71875 227.128906 212.855469 226.589844 202.695312 C 229.253906 209.886719 228.28125 218.703125 224.757812 227.164062 C 231.628906 223.238281 232.074219 203.519531 232.046875 196.558594 " fill-opacity="1" fill-rule="evenodd"/><path fill="#ffffff" d="M 242.421875 167.292969 C 234.515625 158.148438 226.441406 155.734375 223.695312 153.640625 C 225.132812 157.566406 228.597656 160.476562 230.492188 163.0625 C 231.179688 163.996094 234.5 169.308594 232.933594 169.945312 C 230.898438 170.425781 222.976562 162.175781 221.699219 159.71875 C 223.765625 170.058594 227.21875 173.632812 230.117188 178.726562 C 233.742188 185.089844 236.042969 197.515625 233.265625 218.042969 C 237.964844 208.726562 240.804688 188.84375 236.808594 179.144531 C 235.332031 175.550781 239.574219 176.296875 240.628906 179.390625 C 243.324219 187.273438 243.078125 197.582031 241.21875 205.53125 C 247.273438 196.058594 245.660156 182.253906 241.488281 172.460938 C 246.722656 175.847656 248.757812 184.695312 248.707031 191.339844 C 248.695312 193.113281 248.523438 194.894531 248.21875 196.671875 C 256.476562 190.855469 247.476562 173.144531 242.421875 167.292969 " fill-opacity="1" fill-rule="evenodd"/><path fill="#ffffff" d="M 250.339844 149.71875 C 246.132812 143.363281 255.203125 148.597656 256.703125 150.9375 C 259.273438 142.710938 243.304688 133.863281 238.605469 131.6875 C 239.058594 132.402344 244.371094 136.296875 245.886719 139.5625 C 248.4375 145.054688 243.28125 143.15625 241.296875 140.621094 C 239.144531 137.871094 235.28125 134.132812 233.1875 131.628906 C 231.996094 137.34375 241.058594 143.171875 247.789062 152.324219 C 254.988281 162.109375 259 175.242188 256.429688 187.21875 C 265.164062 172.449219 258.949219 162.730469 250.339844 149.71875 " fill-opacity="1" fill-rule="evenodd"/><path fill="#ffffff" d="M 125.320312 122.324219 C 127.210938 118.398438 136.921875 104.058594 142.792969 107.40625 C 141.152344 106.890625 126.445312 124.191406 136.996094 119.398438 C 139.742188 118.144531 142.089844 118.207031 143.023438 119.976562 C 138.375 120.367188 131.046875 128.40625 121.320312 137.773438 C 123.558594 129.324219 130.796875 126.125 130.359375 122.53125 C 130.230469 121.464844 127.246094 122.050781 125.320312 122.324219 " fill-opacity="1" fill-rule="evenodd"/><path fill="#ffffff" d="M 179.328125 98.410156 C 181.191406 98.429688 181.128906 92.890625 177.703125 91.230469 C 185.34375 90.886719 188.84375 104.511719 181.410156 107.964844 C 183.132812 101.085938 175.738281 98.753906 176.242188 103.207031 C 176.484375 105.320312 177.214844 111.6875 172.152344 111.90625 C 176.5625 107.347656 171.332031 96.402344 168.621094 96.402344 C 170.253906 99.582031 169.8125 102.15625 167.871094 103.570312 C 169.652344 89.859375 147.339844 94.507812 140.136719 100.9375 C 146.550781 87.953125 172.546875 89.457031 179.328125 98.410156 " fill-opacity="1" fill-rule="evenodd"/><path fill="#ffffff" d="M 195.679688 98.410156 C 193.820312 98.429688 193.882812 92.890625 197.308594 91.230469 C 189.667969 90.886719 186.167969 104.511719 193.597656 107.964844 C 191.875 101.085938 199.273438 98.753906 198.765625 103.207031 C 198.527344 105.320312 197.796875 111.6875 202.859375 111.90625 C 198.449219 107.347656 203.675781 96.402344 206.390625 96.402344 C 204.757812 99.582031 205.199219 102.15625 207.136719 103.570312 C 205.359375 89.859375 227.671875 94.507812 234.875 100.9375 C 228.460938 87.953125 202.464844 89.457031 195.679688 98.410156 " fill-opacity="1" fill-rule="evenodd"/><path fill="#ffffff" d="M 249.6875 122.324219 C 247.796875 118.398438 238.085938 104.058594 232.214844 107.40625 C 233.859375 106.890625 248.566406 124.191406 238.015625 119.398438 C 235.269531 118.144531 232.921875 118.207031 231.984375 119.976562 C 236.632812 120.367188 243.964844 128.40625 253.691406 137.773438 C 251.453125 129.324219 244.214844 126.125 244.652344 122.53125 C 244.78125 121.464844 247.765625 122.050781 249.6875 122.324219 " fill-opacity="1" fill-rule="evenodd"/><g fill="#000000" fill-opacity="1"><g transform="translate(92.783406, 301.915615)"><g><path d="M 14.21875 -27.296875 C 15.851562 -27.296875 17.171875 -27.046875 18.171875 -26.546875 C 19.179688 -26.054688 20.128906 -25.484375 21.015625 -24.828125 C 21.335938 -24.578125 21.585938 -24.453125 21.765625 -24.453125 C 22.242188 -24.453125 22.5625 -25.222656 22.71875 -26.765625 L 23.578125 -26.765625 C 23.535156 -25.828125 23.5 -24.691406 23.46875 -23.359375 C 23.445312 -22.023438 23.4375 -20.257812 23.4375 -18.0625 L 22.5625 -18.0625 C 22.382812 -19.125 22.171875 -20.144531 21.921875 -21.125 C 21.671875 -22.113281 21.253906 -22.957031 20.671875 -23.65625 C 19.941406 -24.59375 18.984375 -25.316406 17.796875 -25.828125 C 16.617188 -26.347656 15.398438 -26.609375 14.140625 -26.609375 C 12.878906 -26.609375 11.738281 -26.296875 10.71875 -25.671875 C 9.695312 -25.054688 8.820312 -24.171875 8.09375 -23.015625 C 7.363281 -21.859375 6.800781 -20.46875 6.40625 -18.84375 C 6.019531 -17.21875 5.828125 -15.382812 5.828125 -13.34375 C 5.828125 -8.800781 6.554688 -5.476562 8.015625 -3.375 C 9.472656 -1.28125 11.738281 -0.234375 14.8125 -0.234375 C 15.71875 -0.234375 16.503906 -0.363281 17.171875 -0.625 C 17.847656 -0.882812 18.375 -1.144531 18.75 -1.40625 C 19.226562 -1.726562 19.53125 -2.035156 19.65625 -2.328125 C 19.78125 -2.617188 19.84375 -3.003906 19.84375 -3.484375 L 19.84375 -7.109375 C 19.84375 -8.140625 19.738281 -8.90625 19.53125 -9.40625 C 19.332031 -9.914062 18.960938 -10.257812 18.421875 -10.4375 C 17.878906 -10.613281 17.082031 -10.710938 16.03125 -10.734375 L 16.03125 -11.484375 C 16.476562 -11.460938 17.003906 -11.445312 17.609375 -11.4375 C 18.210938 -11.425781 18.847656 -11.410156 19.515625 -11.390625 C 20.191406 -11.378906 20.804688 -11.375 21.359375 -11.375 C 22.191406 -11.375 22.941406 -11.382812 23.609375 -11.40625 C 24.273438 -11.4375 24.832031 -11.460938 25.28125 -11.484375 L 25.28125 -10.734375 C 24.726562 -10.710938 24.3125 -10.625 24.03125 -10.46875 C 23.757812 -10.320312 23.578125 -10.019531 23.484375 -9.5625 C 23.398438 -9.101562 23.359375 -8.410156 23.359375 -7.484375 L 23.359375 0 L 22.609375 0 C 22.578125 -0.425781 22.476562 -0.890625 22.3125 -1.390625 C 22.15625 -1.898438 21.910156 -2.15625 21.578125 -2.15625 C 21.429688 -2.15625 21.28125 -2.113281 21.125 -2.03125 C 20.976562 -1.957031 20.710938 -1.785156 20.328125 -1.515625 C 19.503906 -0.878906 18.625 -0.378906 17.6875 -0.015625 C 16.757812 0.347656 15.675781 0.53125 14.4375 0.53125 C 11.84375 0.53125 9.617188 -0.00390625 7.765625 -1.078125 C 5.910156 -2.148438 4.492188 -3.691406 3.515625 -5.703125 C 2.535156 -7.722656 2.046875 -10.128906 2.046875 -12.921875 C 2.046875 -15.867188 2.570312 -18.414062 3.625 -20.5625 C 4.6875 -22.707031 6.128906 -24.363281 7.953125 -25.53125 C 9.785156 -26.707031 11.875 -27.296875 14.21875 -27.296875 Z M 14.21875 -27.296875 "/></g></g></g><g fill="#000000" fill-opacity="1"><g transform="translate(119.350293, 301.915615)"><g><path d="M 31.328125 -26.765625 L 31.328125 -26 C 30.472656 -25.976562 29.820312 -25.882812 29.375 -25.71875 C 28.9375 -25.550781 28.640625 -25.25 28.484375 -24.8125 C 28.335938 -24.375 28.265625 -23.6875 28.265625 -22.75 L 28.265625 -4 C 28.265625 -3.09375 28.335938 -2.410156 28.484375 -1.953125 C 28.640625 -1.503906 28.9375 -1.203125 29.375 -1.046875 C 29.820312 -0.898438 30.472656 -0.800781 31.328125 -0.75 L 31.328125 0 C 30.753906 -0.0507812 30.03125 -0.0820312 29.15625 -0.09375 C 28.289062 -0.101562 27.414062 -0.109375 26.53125 -0.109375 C 25.550781 -0.109375 24.628906 -0.101562 23.765625 -0.09375 C 22.910156 -0.0820312 22.222656 -0.0507812 21.703125 0 L 21.703125 -0.75 C 22.554688 -0.800781 23.203125 -0.898438 23.640625 -1.046875 C 24.078125 -1.203125 24.367188 -1.503906 24.515625 -1.953125 C 24.671875 -2.410156 24.75 -3.09375 24.75 -4 L 24.75 -24.796875 L 24.90625 -24.6875 L 15.640625 0.1875 L 15.046875 0.1875 L 5.515625 -24.34375 L 5.515625 -4.390625 C 5.515625 -3.484375 5.597656 -2.769531 5.765625 -2.25 C 5.929688 -1.726562 6.257812 -1.359375 6.75 -1.140625 C 7.238281 -0.929688 7.972656 -0.800781 8.953125 -0.75 L 8.953125 0 C 8.503906 -0.0507812 7.910156 -0.0820312 7.171875 -0.09375 C 6.441406 -0.101562 5.753906 -0.109375 5.109375 -0.109375 C 4.472656 -0.109375 3.832031 -0.101562 3.1875 -0.09375 C 2.550781 -0.0820312 2.019531 -0.0507812 1.59375 0 L 1.59375 -0.75 C 2.445312 -0.800781 3.09375 -0.929688 3.53125 -1.140625 C 3.976562 -1.359375 4.273438 -1.726562 4.421875 -2.25 C 4.578125 -2.769531 4.65625 -3.484375 4.65625 -4.390625 L 4.65625 -22.75 C 4.65625 -23.6875 4.578125 -24.375 4.421875 -24.8125 C 4.273438 -25.25 3.976562 -25.550781 3.53125 -25.71875 C 3.09375 -25.882812 2.445312 -25.976562 1.59375 -26 L 1.59375 -26.765625 C 2.019531 -26.734375 2.550781 -26.703125 3.1875 -26.671875 C 3.832031 -26.648438 4.472656 -26.640625 5.109375 -26.640625 C 5.660156 -26.640625 6.226562 -26.648438 6.8125 -26.671875 C 7.40625 -26.703125 7.90625 -26.734375 8.3125 -26.765625 L 16.890625 -4.15625 L 16.25 -3.859375 L 24.75 -26.640625 C 25.050781 -26.640625 25.347656 -26.640625 25.640625 -26.640625 C 25.929688 -26.640625 26.226562 -26.640625 26.53125 -26.640625 C 27.414062 -26.640625 28.289062 -26.648438 29.15625 -26.671875 C 30.03125 -26.703125 30.753906 -26.734375 31.328125 -26.765625 Z M 31.328125 -26.765625 "/></g></g></g><g fill="#000000" fill-opacity="1"><g transform="translate(152.26606, 301.915615)"><g/></g></g><g fill="#000000" fill-opacity="1"><g transform="translate(161.67596, 301.915615)"><g><path d="M 20.453125 -26.765625 C 20.347656 -25.878906 20.273438 -25.019531 20.234375 -24.1875 C 20.203125 -23.351562 20.1875 -22.722656 20.1875 -22.296875 C 20.1875 -21.847656 20.195312 -21.414062 20.21875 -21 C 20.25 -20.582031 20.273438 -20.234375 20.296875 -19.953125 L 19.421875 -19.953125 C 19.273438 -21.441406 19.0625 -22.617188 18.78125 -23.484375 C 18.507812 -24.359375 18.035156 -24.976562 17.359375 -25.34375 C 16.691406 -25.707031 15.691406 -25.890625 14.359375 -25.890625 L 11.21875 -25.890625 C 10.363281 -25.890625 9.71875 -25.816406 9.28125 -25.671875 C 8.84375 -25.535156 8.546875 -25.25 8.390625 -24.8125 C 8.242188 -24.375 8.171875 -23.6875 8.171875 -22.75 L 8.171875 -4 C 8.171875 -3.09375 8.242188 -2.410156 8.390625 -1.953125 C 8.546875 -1.503906 8.84375 -1.210938 9.28125 -1.078125 C 9.71875 -0.941406 10.363281 -0.875 11.21875 -0.875 L 13.984375 -0.875 C 15.566406 -0.875 16.769531 -1.085938 17.59375 -1.515625 C 18.414062 -1.941406 19.007812 -2.640625 19.375 -3.609375 C 19.738281 -4.578125 20.007812 -5.894531 20.1875 -7.5625 L 21.046875 -7.5625 C 20.972656 -6.875 20.9375 -5.96875 20.9375 -4.84375 C 20.9375 -4.363281 20.953125 -3.675781 20.984375 -2.78125 C 21.023438 -1.882812 21.097656 -0.957031 21.203125 0 C 19.921875 -0.0507812 18.472656 -0.0820312 16.859375 -0.09375 C 15.242188 -0.101562 13.804688 -0.109375 12.546875 -0.109375 C 11.992188 -0.109375 11.28125 -0.109375 10.40625 -0.109375 C 9.539062 -0.109375 8.601562 -0.101562 7.59375 -0.09375 C 6.582031 -0.0820312 5.5625 -0.0664062 4.53125 -0.046875 C 3.5 -0.0351562 2.519531 -0.0195312 1.59375 0 L 1.59375 -0.75 C 2.445312 -0.800781 3.09375 -0.898438 3.53125 -1.046875 C 3.976562 -1.203125 4.273438 -1.503906 4.421875 -1.953125 C 4.578125 -2.410156 4.65625 -3.09375 4.65625 -4 L 4.65625 -22.75 C 4.65625 -23.6875 4.578125 -24.375 4.421875 -24.8125 C 4.273438 -25.25 3.976562 -25.550781 3.53125 -25.71875 C 3.09375 -25.882812 2.445312 -25.976562 1.59375 -26 L 1.59375 -26.765625 C 2.519531 -26.734375 3.5 -26.710938 4.53125 -26.703125 C 5.5625 -26.691406 6.582031 -26.675781 7.59375 -26.65625 C 8.601562 -26.644531 9.539062 -26.640625 10.40625 -26.640625 C 11.28125 -26.640625 11.992188 -26.640625 12.546875 -26.640625 C 13.703125 -26.640625 15.015625 -26.644531 16.484375 -26.65625 C 17.960938 -26.675781 19.285156 -26.710938 20.453125 -26.765625 Z M 13.953125 -13.828125 C 13.953125 -13.828125 13.953125 -13.703125 13.953125 -13.453125 C 13.953125 -13.203125 13.953125 -13.078125 13.953125 -13.078125 L 7.03125 -13.078125 C 7.03125 -13.078125 7.03125 -13.203125 7.03125 -13.453125 C 7.03125 -13.703125 7.03125 -13.828125 7.03125 -13.828125 Z M 15.046875 -18.828125 C 14.941406 -17.390625 14.894531 -16.289062 14.90625 -15.53125 C 14.925781 -14.78125 14.9375 -14.085938 14.9375 -13.453125 C 14.9375 -12.828125 14.945312 -12.132812 14.96875 -11.375 C 14.988281 -10.625 15.050781 -9.53125 15.15625 -8.09375 L 14.28125 -8.09375 C 14.1875 -8.894531 14.066406 -9.679688 13.921875 -10.453125 C 13.785156 -11.222656 13.484375 -11.851562 13.015625 -12.34375 C 12.554688 -12.832031 11.769531 -13.078125 10.65625 -13.078125 L 10.65625 -13.828125 C 11.488281 -13.828125 12.125 -14 12.5625 -14.34375 C 13.007812 -14.6875 13.332031 -15.117188 13.53125 -15.640625 C 13.726562 -16.171875 13.863281 -16.71875 13.9375 -17.28125 C 14.019531 -17.851562 14.097656 -18.367188 14.171875 -18.828125 Z M 15.046875 -18.828125 "/></g></g></g><g fill="#000000" fill-opacity="1"><g transform="translate(184.690529, 301.915615)"><g><path d="M 13.796875 -20 C 14.753906 -20 15.550781 -19.867188 16.1875 -19.609375 C 16.832031 -19.359375 17.367188 -19.007812 17.796875 -18.5625 C 18.273438 -18.050781 18.613281 -17.414062 18.8125 -16.65625 C 19.019531 -15.90625 19.125 -14.890625 19.125 -13.609375 L 19.125 -3.515625 C 19.125 -2.453125 19.34375 -1.734375 19.78125 -1.359375 C 20.226562 -0.984375 20.96875 -0.796875 22 -0.796875 L 22 0 C 21.570312 -0.0195312 20.914062 -0.0507812 20.03125 -0.09375 C 19.144531 -0.132812 18.289062 -0.15625 17.46875 -0.15625 C 16.632812 -0.15625 15.816406 -0.132812 15.015625 -0.09375 C 14.222656 -0.0507812 13.628906 -0.0195312 13.234375 0 L 13.234375 -0.796875 C 14.140625 -0.796875 14.78125 -0.984375 15.15625 -1.359375 C 15.53125 -1.734375 15.71875 -2.453125 15.71875 -3.515625 L 15.71875 -14.4375 C 15.71875 -15.21875 15.65625 -15.9375 15.53125 -16.59375 C 15.40625 -17.25 15.117188 -17.773438 14.671875 -18.171875 C 14.234375 -18.578125 13.5625 -18.78125 12.65625 -18.78125 C 11.601562 -18.78125 10.675781 -18.476562 9.875 -17.875 C 9.082031 -17.269531 8.46875 -16.441406 8.03125 -15.390625 C 7.59375 -14.347656 7.375 -13.1875 7.375 -11.90625 L 7.375 -3.515625 C 7.375 -2.453125 7.5625 -1.734375 7.9375 -1.359375 C 8.3125 -0.984375 8.953125 -0.796875 9.859375 -0.796875 L 9.859375 0 C 9.460938 -0.0195312 8.863281 -0.0507812 8.0625 -0.09375 C 7.269531 -0.132812 6.457031 -0.15625 5.625 -0.15625 C 4.800781 -0.15625 3.945312 -0.132812 3.0625 -0.09375 C 2.175781 -0.0507812 1.519531 -0.0195312 1.09375 0 L 1.09375 -0.796875 C 2.125 -0.796875 2.859375 -0.984375 3.296875 -1.359375 C 3.742188 -1.734375 3.96875 -2.453125 3.96875 -3.515625 L 3.96875 -15.34375 C 3.96875 -16.476562 3.765625 -17.316406 3.359375 -17.859375 C 2.960938 -18.398438 2.207031 -18.671875 1.09375 -18.671875 L 1.09375 -19.46875 C 1.90625 -19.394531 2.6875 -19.359375 3.4375 -19.359375 C 4.164062 -19.359375 4.863281 -19.398438 5.53125 -19.484375 C 6.195312 -19.566406 6.8125 -19.695312 7.375 -19.875 L 7.375 -15.421875 C 8.03125 -17.128906 8.941406 -18.316406 10.109375 -18.984375 C 11.285156 -19.660156 12.515625 -20 13.796875 -20 Z M 13.796875 -20 "/></g></g></g><g fill="#000000" fill-opacity="1"><g transform="translate(207.251606, 301.915615)"><g><path d="M 10.28125 -20 C 12.5 -20 14.226562 -19.320312 15.46875 -17.96875 C 16.71875 -16.625 17.34375 -14.523438 17.34375 -11.671875 L 4 -11.671875 L 3.96875 -12.390625 L 13.71875 -12.390625 C 13.769531 -13.628906 13.671875 -14.769531 13.421875 -15.8125 C 13.171875 -16.863281 12.773438 -17.703125 12.234375 -18.328125 C 11.691406 -18.960938 10.988281 -19.28125 10.125 -19.28125 C 8.96875 -19.28125 7.941406 -18.695312 7.046875 -17.53125 C 6.148438 -16.375 5.613281 -14.535156 5.4375 -12.015625 L 5.5625 -11.875 C 5.507812 -11.488281 5.46875 -11.066406 5.4375 -10.609375 C 5.414062 -10.160156 5.40625 -9.710938 5.40625 -9.265625 C 5.40625 -7.546875 5.679688 -6.066406 6.234375 -4.828125 C 6.785156 -3.597656 7.507812 -2.660156 8.40625 -2.015625 C 9.300781 -1.378906 10.226562 -1.0625 11.1875 -1.0625 C 11.945312 -1.0625 12.664062 -1.179688 13.34375 -1.421875 C 14.019531 -1.660156 14.644531 -2.054688 15.21875 -2.609375 C 15.800781 -3.160156 16.3125 -3.90625 16.75 -4.84375 L 17.5 -4.53125 C 17.21875 -3.695312 16.757812 -2.890625 16.125 -2.109375 C 15.5 -1.328125 14.707031 -0.691406 13.75 -0.203125 C 12.800781 0.285156 11.695312 0.53125 10.4375 0.53125 C 8.613281 0.53125 7.050781 0.113281 5.75 -0.71875 C 4.457031 -1.550781 3.460938 -2.703125 2.765625 -4.171875 C 2.078125 -5.648438 1.734375 -7.347656 1.734375 -9.265625 C 1.734375 -11.484375 2.085938 -13.390625 2.796875 -14.984375 C 3.503906 -16.585938 4.5 -17.820312 5.78125 -18.6875 C 7.0625 -19.5625 8.5625 -20 10.28125 -20 Z M 10.28125 -20 "/></g></g></g><g fill="#000000" fill-opacity="1"><g transform="translate(226.373747, 301.915615)"><g><path d="M 12.84375 -20 C 13.53125 -20 14.128906 -19.859375 14.640625 -19.578125 C 15.160156 -19.296875 15.566406 -18.9375 15.859375 -18.5 C 16.148438 -18.0625 16.296875 -17.566406 16.296875 -17.015625 C 16.296875 -16.378906 16.097656 -15.820312 15.703125 -15.34375 C 15.316406 -14.863281 14.796875 -14.625 14.140625 -14.625 C 13.609375 -14.625 13.140625 -14.789062 12.734375 -15.125 C 12.335938 -15.46875 12.140625 -15.957031 12.140625 -16.59375 C 12.140625 -17.070312 12.269531 -17.476562 12.53125 -17.8125 C 12.789062 -18.15625 13.085938 -18.429688 13.421875 -18.640625 C 13.242188 -18.890625 12.976562 -19.015625 12.625 -19.015625 C 11.84375 -19.015625 11.125 -18.78125 10.46875 -18.3125 C 9.8125 -17.84375 9.253906 -17.242188 8.796875 -16.515625 C 8.347656 -15.785156 8 -15.007812 7.75 -14.1875 C 7.5 -13.375 7.375 -12.613281 7.375 -11.90625 L 7.375 -3.890625 C 7.375 -2.660156 7.734375 -1.835938 8.453125 -1.421875 C 9.171875 -1.003906 10.144531 -0.796875 11.375 -0.796875 L 11.375 0 C 10.789062 -0.0195312 9.96875 -0.0507812 8.90625 -0.09375 C 7.851562 -0.132812 6.738281 -0.15625 5.5625 -0.15625 C 4.695312 -0.15625 3.84375 -0.132812 3 -0.09375 C 2.15625 -0.0507812 1.519531 -0.0195312 1.09375 0 L 1.09375 -0.796875 C 2.125 -0.796875 2.859375 -0.984375 3.296875 -1.359375 C 3.742188 -1.734375 3.96875 -2.453125 3.96875 -3.515625 L 3.96875 -15.34375 C 3.96875 -16.476562 3.765625 -17.316406 3.359375 -17.859375 C 2.960938 -18.398438 2.207031 -18.671875 1.09375 -18.671875 L 1.09375 -19.46875 C 1.90625 -19.394531 2.6875 -19.359375 3.4375 -19.359375 C 4.164062 -19.359375 4.863281 -19.398438 5.53125 -19.484375 C 6.195312 -19.566406 6.8125 -19.695312 7.375 -19.875 L 7.375 -15.15625 C 7.644531 -15.882812 8.035156 -16.617188 8.546875 -17.359375 C 9.066406 -18.109375 9.691406 -18.734375 10.421875 -19.234375 C 11.160156 -19.742188 11.96875 -20 12.84375 -20 Z M 12.84375 -20 "/></g></g></g><g fill="#000000" fill-opacity="1"><g transform="translate(243.190625, 301.915615)"><g><path d="M 8.046875 7.109375 C 6.710938 7.109375 5.453125 6.96875 4.265625 6.6875 C 3.085938 6.414062 2.140625 5.984375 1.421875 5.390625 C 0.703125 4.796875 0.34375 4.046875 0.34375 3.140625 C 0.34375 2.253906 0.691406 1.492188 1.390625 0.859375 C 2.097656 0.234375 3.054688 -0.238281 4.265625 -0.5625 L 4.5 0.03125 C 3.945312 0.207031 3.503906 0.5625 3.171875 1.09375 C 2.847656 1.625 2.6875 2.21875 2.6875 2.875 C 2.6875 4.03125 3.21875 4.914062 4.28125 5.53125 C 5.351562 6.15625 6.75 6.46875 8.46875 6.46875 C 9.601562 6.46875 10.710938 6.320312 11.796875 6.03125 C 12.878906 5.738281 13.769531 5.25 14.46875 4.5625 C 15.175781 3.882812 15.53125 2.992188 15.53125 1.890625 C 15.53125 1.054688 15.234375 0.367188 14.640625 -0.171875 C 14.054688 -0.710938 12.894531 -0.984375 11.15625 -0.984375 L 8.359375 -0.984375 C 7.546875 -0.984375 6.757812 -1.046875 6 -1.171875 C 5.25 -1.296875 4.632812 -1.554688 4.15625 -1.953125 C 3.675781 -2.359375 3.4375 -2.976562 3.4375 -3.8125 C 3.4375 -4.675781 3.789062 -5.503906 4.5 -6.296875 C 5.207031 -7.085938 6.503906 -7.898438 8.390625 -8.734375 L 8.84375 -8.390625 C 7.988281 -7.929688 7.242188 -7.46875 6.609375 -7 C 5.984375 -6.539062 5.671875 -5.992188 5.671875 -5.359375 C 5.671875 -4.554688 6.273438 -4.15625 7.484375 -4.15625 L 12.203125 -4.15625 C 13.265625 -4.15625 14.242188 -4.003906 15.140625 -3.703125 C 16.035156 -3.398438 16.757812 -2.921875 17.3125 -2.265625 C 17.863281 -1.609375 18.140625 -0.753906 18.140625 0.296875 C 18.140625 1.484375 17.757812 2.59375 17 3.625 C 16.25 4.65625 15.125 5.492188 13.625 6.140625 C 12.125 6.785156 10.265625 7.109375 8.046875 7.109375 Z M 8.234375 -8.046875 C 7.003906 -8.046875 5.882812 -8.253906 4.875 -8.671875 C 3.863281 -9.085938 3.066406 -9.734375 2.484375 -10.609375 C 1.910156 -11.492188 1.625 -12.628906 1.625 -14.015625 C 1.625 -15.398438 1.910156 -16.535156 2.484375 -17.421875 C 3.066406 -18.304688 3.863281 -18.957031 4.875 -19.375 C 5.882812 -19.789062 7.003906 -20 8.234375 -20 C 9.492188 -20 10.617188 -19.789062 11.609375 -19.375 C 12.609375 -18.957031 13.398438 -18.304688 13.984375 -17.421875 C 14.566406 -16.535156 14.859375 -15.398438 14.859375 -14.015625 C 14.859375 -12.628906 14.566406 -11.492188 13.984375 -10.609375 C 13.398438 -9.734375 12.609375 -9.085938 11.609375 -8.671875 C 10.617188 -8.253906 9.492188 -8.046875 8.234375 -8.046875 Z M 8.234375 -8.734375 C 9.191406 -8.734375 9.941406 -9.109375 10.484375 -9.859375 C 11.023438 -10.617188 11.296875 -12.003906 11.296875 -14.015625 C 11.296875 -16.035156 11.023438 -17.421875 10.484375 -18.171875 C 9.941406 -18.929688 9.191406 -19.3125 8.234375 -19.3125 C 7.304688 -19.3125 6.5625 -18.929688 6 -18.171875 C 5.445312 -17.421875 5.171875 -16.035156 5.171875 -14.015625 C 5.171875 -12.003906 5.445312 -10.617188 6 -9.859375 C 6.5625 -9.109375 7.304688 -8.734375 8.234375 -8.734375 Z M 13.6875 -16.859375 L 13 -17.125 C 13.351562 -17.976562 13.957031 -18.734375 14.8125 -19.390625 C 15.664062 -20.046875 16.5625 -20.375 17.5 -20.375 C 18.15625 -20.375 18.679688 -20.191406 19.078125 -19.828125 C 19.484375 -19.460938 19.6875 -18.914062 19.6875 -18.1875 C 19.6875 -17.40625 19.476562 -16.851562 19.0625 -16.53125 C 18.644531 -16.21875 18.222656 -16.0625 17.796875 -16.0625 C 17.421875 -16.0625 17.066406 -16.191406 16.734375 -16.453125 C 16.410156 -16.722656 16.222656 -17.144531 16.171875 -17.71875 C 16.117188 -18.300781 16.296875 -19.046875 16.703125 -19.953125 L 17.203125 -19.84375 C 16.140625 -19.4375 15.378906 -19.015625 14.921875 -18.578125 C 14.472656 -18.140625 14.0625 -17.566406 13.6875 -16.859375 Z M 13.6875 -16.859375 "/></g></g></g><g fill="#000000" fill-opacity="1"><g transform="translate(263.144136, 301.915615)"><g><path d="M 18.671875 -19.46875 L 18.671875 -18.703125 C 18.191406 -18.660156 17.75 -18.445312 17.34375 -18.0625 C 16.945312 -17.6875 16.570312 -17.019531 16.21875 -16.0625 L 10.015625 0.1875 L 9.375 0.1875 L 2.421875 -16.5625 C 1.941406 -17.539062 1.46875 -18.132812 1 -18.34375 C 0.53125 -18.5625 0.144531 -18.671875 -0.15625 -18.671875 L -0.15625 -19.46875 C 0.40625 -19.394531 0.988281 -19.335938 1.59375 -19.296875 C 2.195312 -19.253906 2.847656 -19.234375 3.546875 -19.234375 C 4.328125 -19.234375 5.148438 -19.257812 6.015625 -19.3125 C 6.890625 -19.363281 7.707031 -19.414062 8.46875 -19.46875 L 8.46875 -18.671875 C 7.832031 -18.671875 7.269531 -18.625 6.78125 -18.53125 C 6.289062 -18.445312 5.984375 -18.179688 5.859375 -17.734375 C 5.734375 -17.296875 5.882812 -16.550781 6.3125 -15.5 L 10.96875 -3.96875 L 10.734375 -3.890625 L 15.046875 -15.15625 C 15.367188 -15.988281 15.5 -16.648438 15.4375 -17.140625 C 15.375 -17.628906 15.113281 -18 14.65625 -18.25 C 14.207031 -18.507812 13.53125 -18.660156 12.625 -18.703125 L 12.625 -19.46875 C 13.070312 -19.4375 13.457031 -19.414062 13.78125 -19.40625 C 14.113281 -19.394531 14.4375 -19.382812 14.75 -19.375 C 15.070312 -19.363281 15.421875 -19.359375 15.796875 -19.359375 C 16.378906 -19.359375 16.898438 -19.367188 17.359375 -19.390625 C 17.828125 -19.410156 18.265625 -19.4375 18.671875 -19.46875 Z M 10.015625 0.1875 L 8.734375 3.484375 C 8.484375 4.109375 8.222656 4.632812 7.953125 5.0625 C 7.691406 5.488281 7.410156 5.84375 7.109375 6.125 C 6.703125 6.5 6.222656 6.753906 5.671875 6.890625 C 5.117188 7.035156 4.613281 7.109375 4.15625 7.109375 C 3.675781 7.109375 3.238281 7.019531 2.84375 6.84375 C 2.457031 6.664062 2.148438 6.40625 1.921875 6.0625 C 1.703125 5.726562 1.59375 5.320312 1.59375 4.84375 C 1.59375 4.238281 1.765625 3.75 2.109375 3.375 C 2.460938 3.007812 2.957031 2.828125 3.59375 2.828125 C 4.125 2.828125 4.578125 2.976562 4.953125 3.28125 C 5.328125 3.582031 5.515625 4.023438 5.515625 4.609375 C 5.515625 5.035156 5.410156 5.382812 5.203125 5.65625 C 5.003906 5.9375 4.769531 6.15625 4.5 6.3125 C 4.550781 6.332031 4.59375 6.34375 4.625 6.34375 C 4.664062 6.34375 4.695312 6.34375 4.71875 6.34375 C 5.40625 6.34375 6.007812 6.109375 6.53125 5.640625 C 7.0625 5.179688 7.53125 4.4375 7.9375 3.40625 L 9.296875 -0.109375 Z M 10.015625 0.1875 "/></g></g></g></svg>